<?xml version="1.0" standalone="no"?>
<!DOCTYPE svg PUBLIC "-//W3C//DTD SVG 20010904//EN"
 "http://www.w3.org/TR/2001/REC-SVG-20010904/DTD/svg10.dtd">
<svg version="1.0" xmlns="http://www.w3.org/2000/svg"
 width="700.000000pt" height="700.000000pt" viewBox="0 0 700.000000 700.000000"
 preserveAspectRatio="xMidYMid meet">
<metadata>
Created by potrace 1.14, written by Peter Selinger 2001-2017
</metadata>
<g transform="translate(0.000000,700.000000) scale(0.100000,-0.100000)"
fill="#000000" stroke="none">
<path d="M5137 6994 c-3 -2 -1306 -17 -1339 -15 -33 2 -36 -3 -43 -70 -21
-223 -21 -652 0 -874 2 -27 7 -86 10 -130 3 -44 7 -96 10 -115 20 -158 26
-367 13 -442 -20 -108 -79 -176 -178 -205 -174 -51 -338 16 -417 170 -24 48
-46 175 -59 337 -2 36 -7 79 -9 96 -4 28 -9 96 -20 304 -7 120 -7 553 0 695 4
77 8 160 8 185 l2 45 -265 -1 c-929 -4 -2546 -26 -2555 -36 -6 -5 -14 -96 -20
-213 -3 -60 -7 -155 -10 -210 -3 -55 -7 -158 -10 -230 -3 -71 -7 -184 -10
-250 -5 -122 -12 -319 -20 -570 -2 -77 -7 -212 -10 -300 -3 -88 -7 -239 -10
-335 -3 -96 -7 -247 -10 -335 -2 -88 -7 -284 -10 -435 -3 -151 -8 -351 -10
-445 -22 -883 -22 -2307 0 -2750 9 -198 23 -394 30 -445 2 -14 7 -49 10 -79
14 -114 34 -180 60 -197 32 -21 141 -44 280 -59 28 -3 68 -7 90 -10 77 -8 257
-22 400 -30 44 -2 125 -7 181 -10 l101 -6 27 33 c155 188 317 456 416 683 11
28 28 64 35 80 34 72 119 331 140 425 70 305 89 471 89 745 0 286 -18 456 -75
725 -27 125 -26 188 4 253 74 158 278 229 441 152 102 -48 152 -128 186 -297
11 -56 23 -114 25 -128 5 -23 11 -57 20 -120 9 -60 25 -191 32 -265 14 -158 7
-633 -11 -731 -2 -11 -7 -48 -11 -84 -10 -97 -62 -350 -96 -475 -52 -190 -110
-352 -190 -534 -60 -135 -161 -328 -225 -428 l-33 -52 107 -3 c168 -5 2036 0
2242 7 102 3 239 7 305 9 66 3 134 5 152 5 l32 1 -51 82 c-193 311 -370 762
-442 1128 -59 297 -75 469 -71 775 2 138 6 266 9 285 3 19 8 62 11 95 11 122
55 364 92 510 40 159 137 245 282 250 139 4 261 -65 322 -183 32 -63 33 -146
2 -283 -14 -63 -26 -125 -28 -139 -2 -14 -8 -56 -14 -95 -24 -151 -35 -307
-35 -480 0 -112 12 -317 20 -359 2 -10 6 -44 10 -75 13 -122 77 -389 133 -552
54 -161 158 -391 248 -549 32 -58 189 -294 206 -312 7 -7 23 -28 36 -46 l24
-34 121 7 c66 3 132 8 146 10 14 2 66 6 115 10 50 4 106 8 125 10 105 10 160
16 177 19 10 2 43 7 73 10 84 10 160 33 176 53 30 39 65 202 89 408 4 32 8 66
10 75 2 8 6 54 10 102 3 49 8 96 9 105 2 10 7 65 10 123 4 58 9 121 11 140 2
19 7 91 10 160 4 69 8 145 10 170 2 25 7 111 10 190 3 80 8 177 10 215 2 39 7
171 10 295 4 124 9 261 10 305 21 609 21 1996 0 2610 -7 208 -16 444 -20 505
-2 36 -7 112 -10 170 -8 141 -14 233 -20 302 -3 32 -8 86 -10 120 -3 35 -8 79
-10 98 -2 19 -7 64 -10 100 -3 36 -11 97 -16 135 -6 39 -12 85 -15 103 -2 18
-11 67 -20 110 -9 42 -17 84 -19 92 -9 43 -49 148 -67 172 l-19 28 -726 -2
c-398 -2 -725 -4 -726 -4z"/>
</g>
</svg>
