<svg xmlns:xlink="http://www.w3.org/1999/xlink" xmlns="http://www.w3.org/2000/svg" viewBox="0 0 330 103" preserveAspectRatio="xMidYMid meet" class="css-g5ufxp" id="hhhbcbga" width="420"  height="131" ><defs id="SvgjsDefs1226"></defs><g id="SvgjsG1227" featurekey="symbolContainer" transform="matrix(1,0,0,1,0,0)" fill="#FFFFFF"><rect width="110" height="103" rx="8" fill="#FFFFFF"></rect></g><g id="SvgjsG1228" featurekey="monogramFeature-0" transform="matrix(1.6721700718036723,0,0,1.6721700718036723,20.000317545762584,-12.049792724715896)" fill="#111111"><path d="M0.84 16.560000000000002 l0 0 c0.06 -0.06 8.58 -0.18 17.7 -0.24 c-0.42 5.7 0.3 9.96 0.3 9.96 c0.24 1.08 1.32 1.8 2.4 1.62 c3 -0.54 0.6 -3.66 1.32 -11.58 c9.06 -0.12 17.58 -0.18 17.7 -0.12 c2.4 1.74 1.8 41.7 0.18 42.84 c-0.36 0.24 -2.58 0.48 -5.76 0.66 c-1.68 -2.04 -5.82 -8.22 -3.66 -17.04 c0.54 -2.52 -3.36 -3.48 -3.9 -0.9 c-2.04 8.16 0.54 14.52 2.82 18.06 c-5.52 0.18 -12.18 0.24 -17.76 0.12 c2.28 -3.6 4.86 -9.9 2.94 -18.18 c-0.66 -2.58 -4.56 -1.62 -3.9 0.9 c2.1 9.06 -2.28 15.3 -3.9 17.16 c-3.72 -0.18 -6.36 -0.42 -6.66 -0.78 c-1.5 -2.16 0 -42.42 0.18 -42.48 z" fill="#111111"></path></g><g id="SvgjsG1229" featurekey="nameFeature-0" transform="matrix(0.6874886836484149,0,0,0.6874886836484149,128.35002611021932,31.080132672224117)" fill="#FFFFFF"><path d="M32.4 12 l0 28 l-6 0 l0 -14.88 l-6.52 14.88 l-5.04 0 l-6.44 -14.8 l0 14.8 l-6 0 l0 -28 l5.76 0 l9.24 20.2 l9.24 -20.2 l5.76 0 z M52.24000000000001 19.2 l5.72 0 l0 20.8 l-5.72 0 l0 -2.56 c-0.12 0.84 -2.16 2.96 -5.76 2.96 c-4.76 0 -10.28 -3.44 -10.28 -10.84 c0 -7.16 5.52 -10.72 10.28 -10.72 c3.6 0 5.64 2.24 5.76 2.68 l0 -2.32 z M47.28 35.32 c2.8 0 5.24 -1.92 5.24 -5.76 c0 -3.72 -2.44 -5.64 -5.24 -5.64 c-2.88 0 -5.52 1.96 -5.52 5.64 c0 3.8 2.64 5.76 5.52 5.76 z M77.48 11.719999999999999 l5.72 0 l0 10.6 l0 17.68 l-5.72 0 l0 -2.56 c-0.12 0.84 -2.16 2.96 -5.76 2.96 c-4.76 0 -10.28 -3.44 -10.28 -10.84 c0 -7.16 5.52 -10.72 10.28 -10.72 c3.6 0 5.64 2.24 5.76 2.68 l0 -9.8 z M72.52000000000001 35.32 c2.8 0 5.24 -1.92 5.24 -5.76 c0 -3.72 -2.44 -5.64 -5.24 -5.64 c-2.88 0 -5.52 1.96 -5.52 5.64 c0 3.8 2.64 5.76 5.52 5.76 z M100.28 18.88 c0.52 0 1 0 1.52 0.12 l0 5.48 c-0.48 -0.12 -0.96 -0.12 -1.36 -0.12 c-3.84 0 -7 2.76 -7.36 6.76 l0 8.88 l-5.72 0 l0 -20.8 l5.72 0 l0 5.2 c0.92 -3.16 3.44 -5.52 7.2 -5.52 z M112.68 40.32 c-3.96 0 -7.88 -2.6 -7.88 -9.16 l0 -11.96 l5.72 0 l0 11.56 c0 3.4 1.32 4.56 3.52 4.56 c3.04 0 4.84 -2.88 5.28 -4.32 l0 -11.8 l5.72 0 l0 20.8 l-5.72 0 l0 -3.84 c-0.4 1.08 -2.64 4.16 -6.64 4.16 z M144.56 19.2 l5.72 0 l0 20.8 c0 6.32 -6.2 8.24 -10.72 8.24 c-2.4 0 -4.4 -0.48 -5.64 -1.16 l0 -4.68 c1.24 0.68 3.16 1.08 5.64 1.08 c3.68 0 5 -1.96 5 -3.48 l0 -2.56 c-0.12 0.84 -2.16 2.96 -5.76 2.96 c-4.76 0 -10.28 -3.44 -10.28 -10.84 c0 -7.16 5.52 -10.72 10.28 -10.72 c3.6 0 5.64 2.24 5.76 2.68 l0 -2.32 z M139.6 35.32 c2.8 0 5.24 -1.92 5.24 -5.76 c0 -3.72 -2.44 -5.64 -5.24 -5.64 c-2.88 0 -5.52 1.96 -5.52 5.64 c0 3.8 2.64 5.76 5.52 5.76 z M169.8 19.2 l5.72 0 l0 20.8 l-5.72 0 l0 -2.56 c-0.12 0.84 -2.16 2.96 -5.76 2.96 c-4.76 0 -10.28 -3.44 -10.28 -10.84 c0 -7.16 5.52 -10.72 10.28 -10.72 c3.6 0 5.64 2.24 5.76 2.68 l0 -2.32 z M164.84 35.32 c2.8 0 5.24 -1.92 5.24 -5.76 c0 -3.72 -2.44 -5.64 -5.24 -5.64 c-2.88 0 -5.52 1.96 -5.52 5.64 c0 3.8 2.64 5.76 5.52 5.76 z M201.16000000000003 11.52 c4.92 0 8.04 3.08 9.52 5.8 l-4.32 2.56 c-1.52 -2.12 -3 -3.2 -5.2 -3.2 c-1.96 0 -3.4 1.16 -3.4 2.76 s0.92 2.44 3.12 3.24 l1.92 0.68 c6.2 2.2 8.64 4.96 8.64 8.8 c0 5.64 -5.36 8.44 -10.12 8.44 c-5.04 0 -8.96 -3 -10.32 -6.92 l4.48 -2.36 c1 2.04 2.68 4 5.84 4 c2.28 0 4.04 -1 4.04 -3.08 c0 -2 -1.2 -2.88 -4.24 -4.04 l-1.72 -0.6 c-4.12 -1.48 -7.44 -3.52 -7.44 -8.4 c0 -4.48 4.2 -7.68 9.2 -7.68 z M224.40000000000003 35.2 c1.08 0 1.88 -0.12 2.76 -0.44 l0 4.8 c-0.88 0.4 -2.24 0.68 -4.24 0.68 c-3.24 0 -5.96 -1.12 -5.96 -7 l0 -9.32 l-2.92 0 l0 -4.72 l2.92 0 l0 -4.88 l5.72 0 l0 4.88 l4.44 0 l0 4.72 l-4.44 0 l0 9.28 c0 0.96 0.28 2 1.72 2 z M240.84000000000003 18.84 c4.72 0 10.88 3.56 10.88 10.84 s-6.16 10.72 -10.88 10.72 s-10.92 -3.44 -10.92 -10.72 s6.2 -10.84 10.92 -10.84 z M240.84000000000003 23.92 c-2.6 0 -5.36 1.96 -5.36 5.76 c0 3.68 2.76 5.64 5.36 5.64 c2.56 0 5.36 -1.96 5.36 -5.64 c0 -3.8 -2.8 -5.76 -5.36 -5.76 z M268.12 18.88 c0.52 0 1 0 1.52 0.12 l0 5.48 c-0.48 -0.12 -0.96 -0.12 -1.36 -0.12 c-3.84 0 -7 2.76 -7.36 6.76 l0 8.88 l-5.72 0 l0 -20.8 l5.72 0 l0 5.2 c0.92 -3.16 3.44 -5.52 7.2 -5.52 z M283.16 18.84 c4.72 0 11.24 3.56 10 12.76 l-15.12 0 c0.72 2.6 2.88 3.96 5.68 3.96 c2.6 0 3.6 -0.6 5.08 -1.4 l3.16 3.08 c-1.8 1.88 -4.36 3.16 -8.44 3.16 c-5.2 0 -11.28 -3.56 -11.28 -10.72 c0 -7.28 6.2 -10.84 10.92 -10.84 z M283.16 23.72 c-2.08 0 -4.28 1.28 -5.04 3.84 l10 0 c-0.64 -2.56 -2.92 -3.84 -4.96 -3.84 z" fill="#FFFFFF"></path></g></svg>