<svg xmlns:xlink="http://www.w3.org/1999/xlink" xmlns="http://www.w3.org/2000/svg" class="css-rt6ihi" viewBox="0 0 70 73.284474893501" width="100"  height="100" ><g transform="translate(-0.00031754576258459684, -27.049792724715896) scale(1.6721700718036723)" fill="#F73859"><path d="M0.84 16.560000000000002 l0 0 c0.06 -0.06 8.58 -0.18 17.7 -0.24 c-0.42 5.7 0.3 9.96 0.3 9.96 c0.24 1.08 1.32 1.8 2.4 1.62 c3 -0.54 0.6 -3.66 1.32 -11.58 c9.06 -0.12 17.58 -0.18 17.7 -0.12 c2.4 1.74 1.8 41.7 0.18 42.84 c-0.36 0.24 -2.58 0.48 -5.76 0.66 c-1.68 -2.04 -5.82 -8.22 -3.66 -17.04 c0.54 -2.52 -3.36 -3.48 -3.9 -0.9 c-2.04 8.16 0.54 14.52 2.82 18.06 c-5.52 0.18 -12.18 0.24 -17.76 0.12 c2.28 -3.6 4.86 -9.9 2.94 -18.18 c-0.66 -2.58 -4.56 -1.62 -3.9 0.9 c2.1 9.06 -2.28 15.3 -3.9 17.16 c-3.72 -0.18 -6.36 -0.42 -6.66 -0.78 c-1.5 -2.16 0 -42.42 0.18 -42.48 z" fill="#F73859"></path></g></svg>